<?xml version="1.0" standalone="no"?>
<!DOCTYPE svg PUBLIC "-//W3C//DTD SVG 20010904//EN"
 "http://www.w3.org/TR/2001/REC-SVG-20010904/DTD/svg10.dtd">
<svg version="1.0" xmlns="http://www.w3.org/2000/svg"
 width="16.000000pt" height="16.000000pt" viewBox="0 0 16.000000 16.000000"
 preserveAspectRatio="xMidYMid meet">
<metadata>
Created by potrace 1.16, written by Peter Selinger 2001-2019
</metadata>
<g transform="translate(0.000000,16.000000) scale(0.100000,-0.100000)"
fill="#000000" stroke="none">
<path d="M14 135 c-3 -14 -3 -36 0 -50 5 -21 12 -25 46 -25 22 0 40 -4 40 -10
0 -5 -18 -10 -40 -10 -34 0 -40 -3 -40 -20 0 -19 5 -21 63 -18 56 3 62 5 65
27 2 12 1 34 -2 47 -5 20 -13 24 -46 24 -22 0 -40 5 -40 10 0 6 18 10 40 10
33 0 40 3 40 20 0 18 -7 20 -60 20 -55 0 -60 -2 -66 -25z"/>
</g>
</svg>
